<svg width="56" height="56" viewBox="0 0 56 56" fill="none" xmlns="http://www.w3.org/2000/svg">
<path d="M49.2335 25.7834L30.2168 6.76671C29.6335 6.18337 28.8168 5.83337 28.0002 5.83337C27.1835 5.83337 26.3668 6.18337 25.7835 6.76671L21.7002 10.85L26.4835 15.6334C26.9502 15.4 27.4168 15.2834 28.0002 15.2834C29.9835 15.2834 31.5002 16.8 31.5002 18.7834C31.5002 19.3667 31.3835 19.8334 31.1502 20.3L35.8168 24.9667C36.2835 24.7334 36.7502 24.6167 37.3335 24.6167C39.3168 24.6167 40.8335 26.1334 40.8335 28.1167C40.8335 30.1 39.3168 31.6167 37.3335 31.6167C35.3502 31.6167 33.8335 30.1 33.8335 28.1167C33.8335 27.5334 33.9502 27.0667 34.1835 26.6L29.5168 21.9334C29.4002 21.9334 29.2835 22.05 29.1668 22.05V34.1834C30.5668 34.65 31.5002 35.9334 31.5002 37.45C31.5002 39.4334 29.9835 40.95 28.0002 40.95C26.0168 40.95 24.5002 39.4334 24.5002 37.45C24.5002 35.9334 25.4335 34.65 26.8335 34.1834V21.9334C25.4335 21.4667 24.5002 20.1834 24.5002 18.6667C24.5002 18.0834 24.6168 17.6167 24.8502 17.15L20.0668 12.3667L6.76683 25.7834C6.1835 26.3667 5.8335 27.1834 5.8335 28C5.8335 28.8167 6.1835 29.6334 6.76683 30.2167L25.7835 49.2334C26.3668 49.8167 27.1835 50.1667 28.0002 50.1667C28.8168 50.1667 29.6335 49.8167 30.2168 49.2334L49.2335 30.2167C49.8168 29.6334 50.1668 28.8167 50.1668 28C50.1668 27.1834 49.8168 26.3667 49.2335 25.7834Z" fill="black"/>
</svg>
