<svg width="56" height="56" viewBox="0 0 56 56" fill="none" xmlns="http://www.w3.org/2000/svg">
<path d="M46.5113 30.282C44.717 30.2913 43.163 30.7218 41.861 31.3646C41.385 30.4138 40.902 29.5773 40.8215 28.9555C40.727 28.2298 40.6173 27.7958 40.7317 26.9313C40.846 26.0668 41.3465 24.8418 41.3395 24.7496C41.3325 24.6575 41.2275 24.2176 40.1927 24.2095C39.1578 24.2025 38.2723 24.409 38.1685 24.682C38.0647 24.955 37.8652 25.5698 37.7415 26.2115C37.5607 27.1495 35.6753 30.4966 34.6055 32.2466C34.2555 31.563 33.958 30.961 33.8962 30.485C33.8017 29.7593 33.692 29.3253 33.8063 28.4608C33.9207 27.5963 34.4212 26.3713 34.4142 26.2791C34.4072 26.187 34.3022 25.7471 33.2673 25.739C32.2325 25.732 31.347 25.9385 31.2432 26.2115C31.1393 26.4845 31.0273 27.1226 30.8162 27.741C30.6038 28.3581 28.099 33.9406 27.4422 35.3885C27.1073 36.1258 26.8168 36.7185 26.6115 37.1221L26.6103 37.1198C26.6103 37.1198 26.5975 37.1466 26.5765 37.1921C26.4003 37.5363 26.2965 37.7265 26.2965 37.7265C26.2965 37.7265 26.2977 37.7288 26.3 37.7335C26.16 37.9866 26.0107 38.2211 25.9372 38.2211C25.8858 38.2211 25.782 37.548 25.9593 36.624C26.3327 34.6873 27.2275 31.668 27.2193 31.563C27.2147 31.5093 27.3862 30.9831 26.6348 30.7078C25.9045 30.4406 25.6443 30.8863 25.5778 30.8875C25.5137 30.8886 25.4658 31.045 25.4658 31.045C25.4658 31.045 26.279 27.6488 23.9142 27.6488C22.4348 27.6488 20.3862 29.267 19.377 30.7335C18.74 31.0811 17.3762 31.8255 15.9307 32.62C15.3753 32.9256 14.8083 33.2371 14.2705 33.5335C14.2343 33.4926 14.197 33.453 14.1597 33.4121C11.2908 30.352 5.98949 28.1878 6.21349 24.073C6.29516 22.5773 6.81549 18.6386 16.402 13.8623C24.2548 9.94931 30.542 11.0261 31.6282 13.412C33.1798 16.8221 28.2682 23.1583 20.1132 24.073C17.0063 24.4218 15.3695 23.2166 14.9623 22.7686C14.5342 22.2961 14.47 22.2751 14.3102 22.3638C14.05 22.5085 14.2145 22.925 14.3102 23.1735C14.554 23.807 15.5527 24.9305 17.256 25.4905C18.7552 25.9828 22.4033 26.2523 26.8145 24.5455C31.7565 22.6345 35.6147 17.3168 34.4807 12.873C33.328 8.35331 25.8333 6.86698 18.74 9.38698C14.5132 10.8873 9.94333 13.2416 6.65683 16.3146C2.74966 19.9686 2.12666 23.1501 2.38333 24.479C3.29566 29.2016 9.80449 32.277 12.4108 34.5555C12.2825 34.6266 12.1612 34.6931 12.0515 34.7538C10.7448 35.4001 5.78299 37.9971 4.54166 40.74C3.13349 43.8515 4.76566 46.0845 5.84599 46.3855C9.19316 47.3165 12.6278 45.6411 14.4747 42.8878C16.3203 40.1356 16.0952 36.5505 15.2482 34.9148C15.2377 34.895 15.226 34.8751 15.2155 34.8541C15.5527 34.6546 15.8968 34.4516 16.2375 34.251C16.9025 33.8601 17.5558 33.4961 18.1217 33.1881C17.8043 34.0561 17.5722 35.098 17.452 36.6018C17.3097 38.3681 18.0342 40.6513 18.9815 41.5496C19.3992 41.9451 19.9008 41.9545 20.2182 41.9545C21.3207 41.9545 21.8235 41.0375 22.3777 39.9525C23.0567 38.6225 23.6598 37.0731 23.6598 37.0731C23.6598 37.0731 22.9038 41.2568 24.9642 41.2568C25.7155 41.2568 26.4703 40.2826 26.8075 39.7868C26.8087 39.7926 26.8087 39.795 26.8087 39.795C26.8087 39.795 26.8285 39.7623 26.867 39.6981C26.9452 39.5791 26.9895 39.5033 26.9895 39.5033C26.9895 39.5033 26.9907 39.4951 26.993 39.4811C27.2952 38.9573 27.9648 37.7626 28.9682 35.7921C30.2655 33.2465 31.5092 30.0568 31.5092 30.0568C31.5092 30.0568 31.6247 30.8361 32.0038 32.1265C32.2267 32.8848 32.7003 33.7236 33.0748 34.5286C32.7738 34.9463 32.5895 35.1855 32.5895 35.1855C32.5895 35.1855 32.5907 35.1901 32.5942 35.1983C32.3538 35.518 32.0843 35.8621 31.802 36.1981C30.7777 37.4173 29.5585 38.8103 29.3952 39.2116C29.2027 39.6853 29.2482 40.033 29.6203 40.3141C29.8922 40.5183 30.3752 40.551 30.8803 40.5171C31.8008 40.4553 32.4472 40.2266 32.7668 40.0878C33.265 39.9116 33.8448 39.6351 34.3885 39.235C35.393 38.4965 35.9985 37.4406 35.9402 36.0406C35.9075 35.2695 35.6625 34.5053 35.351 33.7843C35.442 33.6536 35.533 33.5206 35.6252 33.3876C37.2083 31.073 38.4368 28.5296 38.4368 28.5296C38.4368 28.5296 38.5523 29.309 38.9315 30.5993C39.1228 31.2515 39.502 31.9643 39.8427 32.662C38.354 33.8718 37.4312 35.2776 37.1103 36.1993C36.5177 37.905 36.982 38.6773 37.8523 38.8535C38.2467 38.9328 38.8043 38.752 39.2232 38.5746C39.7447 38.402 40.3712 38.1138 40.9568 37.6833C41.9613 36.9448 42.9273 35.9111 42.869 34.5123C42.8422 33.8753 42.6695 33.243 42.435 32.6363C43.6973 32.1101 45.3307 31.8185 47.412 32.0611C51.8768 32.5826 52.7518 35.3698 52.585 36.5365C52.417 37.7031 51.4813 38.3448 51.1675 38.5385C50.8548 38.7321 50.7592 38.7998 50.7848 38.9433C50.8233 39.1521 50.968 39.1451 51.2352 39.0996C51.6027 39.0378 53.579 38.1511 53.6642 35.9975C53.7703 33.2605 51.1512 30.2575 46.5113 30.282ZM12.0982 41.8833C10.6188 43.4968 8.55383 44.1058 7.66716 43.5925C6.71049 43.0383 7.08966 40.663 8.90383 38.9503C10.0098 37.9073 11.4378 36.946 12.3852 36.3545C12.601 36.225 12.9172 36.0348 13.3022 35.8038C13.3663 35.7676 13.4025 35.7478 13.4025 35.7478L13.4013 35.7455C13.476 35.7011 13.5518 35.6556 13.63 35.6078C14.2915 38.045 13.651 40.1905 12.0982 41.8833ZM22.8723 34.5601C22.3578 35.8155 21.2798 39.0285 20.623 38.8558C20.0595 38.7076 19.7165 36.2658 20.511 33.8625C20.91 32.6526 21.764 31.2071 22.2657 30.646C23.073 29.743 23.962 29.4478 24.1778 29.8141C24.452 30.2808 23.1955 33.7726 22.8723 34.5601ZM31.7728 38.8068C31.5547 38.9211 31.354 38.9923 31.2618 38.9375C31.193 38.8966 31.3517 38.7461 31.3517 38.7461C31.3517 38.7461 32.4647 37.548 32.9033 37.0031C33.1588 36.6858 33.454 36.309 33.776 35.889C33.7783 35.931 33.7795 35.973 33.7795 36.0138C33.7772 37.4488 32.3912 38.4171 31.7728 38.8068ZM38.6293 37.2435C38.466 37.128 38.494 36.7535 39.0295 35.5856C39.2395 35.1271 39.7202 34.356 40.5532 33.6186C40.65 33.922 40.7083 34.2125 40.7072 34.4831C40.6967 36.2891 39.4087 36.9635 38.6293 37.2435Z" fill="black"/>
</svg>
