<svg width="56" height="56" viewBox="0 0 56 56" fill="none" xmlns="http://www.w3.org/2000/svg">
<path fill-rule="evenodd" clip-rule="evenodd" d="M9.85459 48.6535L8.33559 8.20402C8.28776 6.86819 9.31442 5.73769 10.6479 5.65602L37.6073 3.97019L39.6664 4.66669L42.3439 3.67385L45.0459 3.50469C46.4028 3.41835 47.5729 4.44852 47.6604 5.80535C47.6639 5.85785 47.6651 5.91152 47.6651 5.96519V50.0384C47.6639 51.3999 46.5591 52.5024 45.1976 52.5012C45.1614 52.5012 45.1253 52.5 45.0903 52.4989L12.2066 51.0219C10.9256 50.9647 9.90359 49.9357 9.85459 48.6535Z" fill="black"/>
<path fill-rule="evenodd" clip-rule="evenodd" d="M42.3417 3.67383L37.6085 3.96783L37.3787 9.52233C37.3705 9.72533 37.528 9.89566 37.731 9.90499C37.8162 9.90849 37.899 9.88283 37.9667 9.83149L40.1227 8.19466L41.945 9.63083C42.1037 9.75683 42.3359 9.72999 42.4607 9.57133C42.5144 9.50249 42.5424 9.41733 42.54 9.32983L42.344 3.67499L42.3417 3.67383ZM38.6574 22.2693C37.7929 22.9425 31.3342 23.401 31.3342 22.4432C31.4719 18.7857 29.835 18.6258 28.9239 18.6258C28.0617 18.6258 26.6057 18.886 26.6057 20.846C26.6057 22.8422 28.7325 23.9692 31.2292 25.2922C34.7747 27.1717 39.0692 29.4478 39.0692 35.1703C39.0692 40.6583 34.6102 43.687 28.9262 43.687C23.059 43.687 17.9304 41.3128 18.509 33.0832C18.7365 32.1183 26.1974 32.3482 26.1974 33.0832C26.104 36.4793 26.8787 37.478 28.834 37.478C30.3355 37.478 31.0169 36.6497 31.0169 35.2578C31.0169 33.1485 28.8025 31.9037 26.2522 30.4733C22.8 28.5355 18.7377 26.2547 18.7377 21.0187C18.7377 15.7955 22.3299 12.3118 28.743 12.3118C35.1562 12.3118 38.6574 15.743 38.6574 22.2693Z" fill="white"/>
</svg>
