<svg width="56" height="56" viewBox="0 0 56 56" fill="none" xmlns="http://www.w3.org/2000/svg">
<path fill-rule="evenodd" clip-rule="evenodd" d="M32.4549 0.928955C32.0719 0.928955 31.7163 1.01391 31.3881 1.12717C32.0856 1.60855 32.4685 2.24568 32.66 2.96776C32.6737 3.06687 32.701 3.13766 32.7147 3.23676C32.7285 3.32172 32.7421 3.40667 32.7421 3.49162C32.7968 4.73755 32.4275 4.89329 32.1676 5.62953C31.771 6.57814 31.8804 7.59754 32.3591 8.41873C32.4002 8.51783 32.4549 8.6311 32.5232 8.73021C32.0035 5.14814 34.8894 4.61013 35.4228 3.49162C35.4638 2.51469 34.6842 1.86341 34.0687 1.41034C33.4806 1.04222 32.9472 0.928955 32.4549 0.928955ZM36.8041 1.73598C36.7494 2.06162 36.7904 1.97667 36.7768 2.14657C36.7631 2.25984 36.7631 2.40143 36.7495 2.51469C36.7221 2.62796 36.6947 2.74122 36.6537 2.85449C36.6264 2.96776 36.5853 3.08103 36.5443 3.19429C36.4896 3.30756 36.4486 3.40667 36.3939 3.51993C36.3528 3.57659 36.3255 3.6332 36.2845 3.68983C36.2571 3.73231 36.2297 3.77478 36.2024 3.81726C36.134 3.91637 36.0656 4.01548 35.9972 4.10042C35.9152 4.18538 35.8468 4.28448 35.751 4.35528V4.36945C35.669 4.44025 35.5869 4.5252 35.4912 4.59599C35.204 4.82252 34.8757 4.99242 34.5748 5.2048C34.4791 5.27559 34.3833 5.33222 34.3013 5.41717C34.2056 5.48796 34.1235 5.55875 34.0414 5.6437C33.9457 5.72865 33.8773 5.81361 33.7952 5.91272C33.7269 5.99767 33.6448 6.09677 33.5901 6.19588C33.5217 6.29499 33.4533 6.3941 33.3986 6.49321C33.3439 6.60647 33.3029 6.70558 33.2482 6.81885C33.2071 6.93211 33.1661 7.03122 33.1387 7.14449C33.0977 7.27191 33.0704 7.38518 33.043 7.49845C33.0293 7.55511 33.0293 7.62587 33.0157 7.68251C33.002 7.73916 33.002 7.79577 32.9883 7.85241C32.9883 7.96567 32.9747 8.0931 32.9747 8.20636C32.9747 8.29132 32.9746 8.37627 32.9883 8.46122C32.9883 8.57448 33.002 8.68775 33.0294 8.81517C33.0431 8.92844 33.0704 9.04171 33.0978 9.15498C33.1388 9.26824 33.1661 9.38151 33.2072 9.49477C33.2345 9.56557 33.2756 9.63636 33.3029 9.69299L30.1572 8.4329C29.6238 8.27716 29.1041 8.13558 28.5707 8.00815C28.2835 7.93736 27.9963 7.86657 27.709 7.79577C26.8884 7.62587 26.0541 7.49845 25.2198 7.4135C25.1925 7.4135 25.1788 7.39932 25.1514 7.39932C24.3308 7.31437 23.5239 7.2719 22.7033 7.2719C22.1015 7.2719 21.4997 7.30019 20.9116 7.34269C20.0773 7.39935 19.243 7.51259 18.4087 7.65417C18.2035 7.68247 17.9984 7.72497 17.7932 7.76744C17.3692 7.85239 16.9589 7.9515 16.5623 8.05061C16.3572 8.10726 16.152 8.16388 15.9468 8.22051C15.7417 8.30545 15.5502 8.40457 15.3587 8.48952C15.2083 8.56031 15.0578 8.6311 14.9074 8.70189C14.8801 8.71607 14.8527 8.71607 14.839 8.73019C14.7022 8.80098 14.5791 8.85761 14.4561 8.9284C14.415 8.94258 14.3877 8.9567 14.3603 8.97088C14.2099 9.04167 14.0594 9.12662 13.9363 9.19741C13.8406 9.23989 13.7449 9.29652 13.6628 9.339C13.6218 9.36729 13.5671 9.39565 13.5397 9.40979C13.4166 9.48058 13.2935 9.55137 13.1841 9.62217C13.061 9.69296 12.9516 9.76374 12.8558 9.83453C12.7601 9.90533 12.6644 9.96196 12.5823 10.0327C12.5686 10.0469 12.555 10.0469 12.5413 10.061C12.4592 10.1177 12.3635 10.1885 12.2814 10.2593C12.2814 10.2593 12.2677 10.2734 12.2541 10.2876C12.1857 10.3442 12.1173 10.4008 12.0489 10.4575C12.0216 10.4716 11.9942 10.4999 11.9669 10.5141C11.8985 10.5708 11.8301 10.6415 11.7617 10.6982C11.748 10.7265 11.7207 10.7407 11.707 10.7548C11.6249 10.8398 11.5429 10.9106 11.4608 10.9955C11.4471 10.9955 11.4471 11.0097 11.4335 11.0238C11.3514 11.0946 11.2693 11.1796 11.1873 11.2645C11.1736 11.2787 11.1736 11.2928 11.1599 11.2928C11.0916 11.3636 11.0232 11.4344 10.9548 11.5193C10.9275 11.5476 10.8864 11.576 10.8591 11.6043C10.7907 11.6892 10.7086 11.7742 10.6266 11.8591C10.6129 11.8874 10.5855 11.9016 10.5718 11.9299C10.4624 12.0432 10.3667 12.1565 10.2573 12.2697C10.2436 12.2839 10.2299 12.298 10.2162 12.3122C9.99738 12.5529 9.76488 12.7936 9.51869 13.006C9.27251 13.2325 9.01265 13.4449 8.75278 13.6289C8.47924 13.8272 8.21938 13.997 7.93216 14.1669C7.65863 14.3227 7.37141 14.4643 7.07052 14.5917C6.7833 14.7191 6.48241 14.8324 6.18152 14.9315C5.60708 15.0589 5.01897 15.2996 4.51292 15.3421C4.40351 15.3421 4.28041 15.3704 4.171 15.3846C4.04791 15.4129 3.93849 15.4412 3.82908 15.4695C3.71966 15.512 3.61024 15.5545 3.50083 15.5969C3.39141 15.6394 3.282 15.696 3.17258 15.7527C3.07684 15.8235 2.96743 15.8801 2.87169 15.9509C2.77595 16.0217 2.68021 16.1066 2.59815 16.1916C2.50241 16.2624 2.40667 16.3615 2.32461 16.4464C2.24255 16.5456 2.16048 16.6305 2.0921 16.7296C2.02372 16.8429 1.94166 16.942 1.88695 17.0553C1.81856 17.1544 1.75018 17.2676 1.69547 17.3809C1.64074 17.5083 1.58605 17.6216 1.54502 17.749C1.50399 17.8623 1.46296 17.9897 1.42193 18.1171C1.3946 18.2304 1.3672 18.3437 1.35355 18.4569C1.35355 18.4711 1.33985 18.4852 1.33985 18.4994C1.31252 18.6268 1.31252 18.7967 1.29882 18.8817C1.28512 18.9808 1.27148 19.0657 1.27148 19.1648C1.27148 19.2215 1.27148 19.2923 1.28518 19.3489C1.29888 19.448 1.31251 19.533 1.33991 19.6179C1.36724 19.7029 1.39464 19.7878 1.43565 19.8728V19.8869C1.47668 19.9719 1.53139 20.0568 1.58609 20.1418C1.64082 20.2267 1.69551 20.3117 1.7639 20.3967C1.83228 20.4674 1.91434 20.5524 1.9964 20.6232C2.07847 20.7081 2.16053 20.7789 2.25626 20.8497C2.58451 21.147 2.66658 21.2461 3.09056 21.4727C3.15894 21.5152 3.22733 21.5435 3.3094 21.5859C3.3231 21.5859 3.33673 21.6001 3.35043 21.6001C3.35043 21.6284 3.35043 21.6426 3.36413 21.6709C3.37783 21.7842 3.40516 21.8974 3.43251 22.0107C3.45984 22.1381 3.5009 22.2514 3.54193 22.3505C3.58296 22.4355 3.61032 22.5204 3.65135 22.6054C3.66504 22.6337 3.67868 22.662 3.69238 22.6762C3.74711 22.7894 3.80179 22.8885 3.8565 22.9876C3.92489 23.0868 3.99327 23.1859 4.06165 23.285C4.13004 23.3699 4.2121 23.469 4.29416 23.554C4.37622 23.6389 4.45828 23.7097 4.55403 23.7947C4.55403 23.7947 4.56773 23.8089 4.58136 23.8089C4.66342 23.8797 4.74548 23.9505 4.82755 24.0071C4.92328 24.0779 5.01902 24.1345 5.12844 24.1911C5.22418 24.2478 5.33359 24.3044 5.44301 24.3469C5.52507 24.3894 5.6208 24.4177 5.71655 24.446C5.73025 24.4602 5.74388 24.4602 5.77128 24.4743C5.82601 24.4885 5.89436 24.5026 5.94907 24.5168C5.90804 25.2813 5.89434 26.0034 6.0038 26.2582C6.12689 26.5414 6.72868 25.6777 7.33047 24.6867C7.24841 25.6636 7.1937 26.8104 7.33047 27.1502C7.48091 27.5042 8.30153 26.3998 9.01273 25.1822C18.7097 22.8602 27.5587 29.7978 28.4887 39.5954C28.3109 38.0663 26.4919 37.2168 25.6576 37.4292C25.2473 38.4769 24.5498 39.8219 23.4283 40.6573C23.524 39.7228 23.483 38.7601 23.2915 37.8256C22.9906 39.1282 22.4025 40.3458 21.5955 41.3935C20.2962 41.4926 18.9969 40.8413 18.3131 39.8644C18.2583 39.8219 18.2447 39.737 18.2036 39.6804C18.1626 39.5812 18.1216 39.4821 18.0942 39.383C18.0532 39.2839 18.0259 39.1848 18.0122 39.0857C17.9985 38.9866 17.9985 38.8875 17.9985 38.7742C17.9985 38.7034 17.9985 38.6326 17.9985 38.5618C18.0122 38.4627 18.0395 38.3636 18.0669 38.2645C18.0942 38.1654 18.1216 38.0663 18.1626 37.9672C18.2173 37.8681 18.2583 37.769 18.3267 37.6699C18.5592 36.9903 18.5592 36.4381 18.1352 36.1124C18.0532 36.0558 17.9711 36.0133 17.8754 35.9709C17.8206 35.9567 17.7523 35.9284 17.6976 35.9142C17.6566 35.9 17.6292 35.8859 17.5882 35.8717C17.4924 35.8434 17.3967 35.8151 17.3009 35.8009C17.2052 35.7726 17.1095 35.7585 17.0137 35.7585C16.918 35.7443 16.8086 35.7302 16.7128 35.7302C16.6445 35.7302 16.5761 35.7443 16.5077 35.7443C16.3983 35.7443 16.3025 35.7585 16.2068 35.7868C16.111 35.801 16.0153 35.8151 15.9196 35.8435C15.8238 35.8718 15.7281 35.9001 15.6324 35.9426C15.5366 35.9851 15.4546 36.0275 15.3588 36.07C15.2768 36.1125 15.1947 36.1691 15.099 36.2116C11.9122 38.3637 13.8133 43.404 15.988 44.8623C15.1673 45.0181 14.333 45.2022 14.1005 45.3862C14.0868 45.4004 14.0732 45.4145 14.0732 45.4145C14.6613 45.7826 15.2768 46.0941 15.9196 46.3631C16.7949 46.6604 17.725 46.9294 18.1353 47.0427V47.0569C19.2705 47.2976 20.4193 47.3825 21.5819 47.3117C27.6408 46.8728 32.6055 42.1015 33.5082 35.8152C33.5355 35.9426 33.5629 36.0558 33.5902 36.1833C33.6313 36.4381 33.686 36.7071 33.7133 36.9761V36.9903C33.7407 37.1178 33.7544 37.2452 33.7681 37.3585V37.4151C33.7818 37.5425 33.7954 37.67 33.7954 37.7832C33.8091 37.939 33.8227 38.0947 33.8227 38.2505V38.477C33.8227 38.5478 33.8364 38.6327 33.8364 38.7035C33.8364 38.7885 33.8227 38.8734 33.8227 38.9584V39.1566C33.8227 39.2557 33.809 39.3406 33.809 39.4398C33.809 39.4964 33.809 39.553 33.7953 39.6238C33.7953 39.7229 33.7816 39.822 33.7816 39.9353C33.7679 39.9778 33.7679 40.0202 33.7679 40.0627C33.7542 40.176 33.7406 40.2751 33.7269 40.3884C33.7269 40.4308 33.7269 40.4733 33.7132 40.5158C33.6995 40.6574 33.6721 40.7848 33.6585 40.9264V40.9406V40.9548C33.6311 41.0822 33.6037 41.2238 33.5764 41.3512V41.3937C33.5491 41.5211 33.5217 41.6485 33.4943 41.7759C33.4943 41.7901 33.4806 41.8184 33.4806 41.8326C33.4533 41.96 33.4259 42.0874 33.3849 42.2149V42.2573C33.3439 42.3989 33.3028 42.5263 33.2755 42.6538C33.2618 42.6679 33.2618 42.6821 33.2618 42.6821C33.2208 42.8237 33.1797 42.9652 33.1387 43.1068C33.084 43.2484 33.043 43.3758 32.9883 43.5174C32.9335 43.659 32.8925 43.8006 32.8378 43.928C32.7831 44.0696 32.7284 44.197 32.6737 44.3386H32.66C32.6052 44.466 32.5505 44.6076 32.4822 44.735C32.4685 44.7775 32.4548 44.8058 32.4411 44.8341C32.4274 44.8483 32.4274 44.8624 32.4138 44.8766C31.5248 46.7314 30.2118 48.3596 28.5706 49.6338C28.4612 49.7046 28.3517 49.7896 28.2423 49.8745C28.215 49.9028 28.1739 49.917 28.1466 49.9453C28.0508 50.0161 27.9551 50.0869 27.8457 50.1577L27.8867 50.2426H27.9004C28.0919 50.2143 28.2834 50.186 28.4748 50.1577H28.4885C28.8441 50.101 29.1997 50.0302 29.5554 49.9595C29.6511 49.9453 29.7605 49.917 29.8562 49.8887C29.9246 49.8745 29.9793 49.8604 30.0477 49.8462C30.1435 49.832 30.2392 49.8037 30.3349 49.7895C30.417 49.7612 30.4991 49.7471 30.5811 49.7187C31.9488 49.3789 33.2755 48.9117 34.5474 48.3595C32.3728 51.4319 29.4596 53.9096 26.054 55.5378C27.6269 55.4246 29.1997 55.1555 30.7179 54.7025C36.2297 53.0176 40.8662 49.1807 43.6426 44.0129C43.0819 47.2835 41.8236 50.3983 39.9635 53.1167C41.2902 52.2106 42.5074 51.1629 43.6153 49.9736C46.6789 46.6605 48.6894 42.4555 49.3733 37.939C49.8383 40.176 49.9751 42.4838 49.7699 44.7633C59.6447 30.5059 50.5905 15.7246 46.802 11.831C46.7883 11.8027 46.7747 11.7885 46.7747 11.7602C46.761 11.7744 46.761 11.7744 46.761 11.7885C46.761 11.7743 46.761 11.7743 46.7473 11.7602C46.7473 11.9301 46.7336 12.1 46.7199 12.2699C46.6789 12.5956 46.6379 12.907 46.5832 13.2185C46.5148 13.53 46.4327 13.8415 46.3506 14.153C46.2549 14.4503 46.1455 14.7618 46.0224 15.0591C45.8993 15.3423 45.7625 15.6396 45.6121 15.9228C45.4616 16.1918 45.2975 16.4749 45.1197 16.7298C44.9419 16.9988 44.7504 17.2537 44.559 17.4943C44.3538 17.7492 44.135 17.9757 43.9161 18.2023C43.7794 18.3297 43.6563 18.443 43.5195 18.5562C43.4101 18.6553 43.3144 18.7403 43.2049 18.8394C42.9588 19.0376 42.7126 19.2217 42.439 19.3916C42.1792 19.5615 41.9056 19.7314 41.6321 19.8729C41.3449 20.0145 41.0577 20.142 40.7705 20.2694C40.4832 20.3826 40.1823 20.4818 39.8814 20.5667C39.5805 20.6517 39.266 20.7224 38.9651 20.7791C38.6505 20.8357 38.3359 20.864 38.0351 20.8923C37.8162 20.9065 37.5974 20.9206 37.3786 20.9206C37.064 20.9206 36.7494 20.8923 36.4485 20.864C36.134 20.8357 35.8194 20.7932 35.5185 20.7224C35.2039 20.6657 34.903 20.5808 34.6021 20.4817H34.5884C34.8893 20.4534 35.1902 20.4251 35.4911 20.3684C35.8057 20.3118 36.1066 20.241 36.4075 20.1561C36.7084 20.0711 37.0093 19.972 37.2965 19.8587C37.5974 19.7455 37.8846 19.6039 38.1581 19.4623C38.4453 19.3207 38.7052 19.165 38.9787 18.9951C39.2386 18.811 39.4985 18.627 39.7447 18.4287C39.9908 18.2305 40.2233 18.0182 40.4422 17.7916C40.6747 17.5792 40.8798 17.3386 41.085 17.0979C41.2901 16.843 41.4816 16.5882 41.6594 16.3333C41.6868 16.2908 41.7142 16.2342 41.7415 16.1917C41.8783 15.9652 42.015 15.7387 42.1381 15.5121C42.2886 15.229 42.4253 14.9458 42.5484 14.6485C42.6715 14.3511 42.7809 14.0538 42.8767 13.7423C42.9724 13.445 43.0408 13.1335 43.1092 12.822C43.1639 12.4964 43.2186 12.1849 43.246 11.8734C43.2733 11.5478 43.3007 11.2221 43.3007 10.9107C43.3007 10.6841 43.287 10.4576 43.2734 10.2311C43.246 9.90543 43.205 9.59394 43.1639 9.28246C43.1092 8.95682 43.0409 8.64534 42.9588 8.33385C42.8631 8.03653 42.7673 7.72504 42.6579 7.42772C42.5485 7.13039 42.4117 6.83306 42.2749 6.54989C42.1245 6.26673 41.974 5.98356 41.8099 5.71456C41.6321 5.44555 41.4543 5.1907 41.2628 4.93584C41.0577 4.69515 40.8525 4.45446 40.6337 4.21377C40.5243 4.10051 40.4012 3.97308 40.2781 3.85982C39.6626 3.36427 39.0198 2.89704 38.377 2.47229C38.2813 2.41564 38.1992 2.37318 38.1035 2.33071C37.6521 2.03339 37.2281 1.87756 36.8041 1.73598Z" fill="black"/>
</svg>
